<?xml version="1.0" standalone="no"?>
<!DOCTYPE svg PUBLIC "-//W3C//DTD SVG 20010904//EN"
 "http://www.w3.org/TR/2001/REC-SVG-20010904/DTD/svg10.dtd">
<svg version="1.0" xmlns="http://www.w3.org/2000/svg"
 width="1600.000000pt" height="1600.000000pt" viewBox="0 0 1600.000000 1600.000000"
 preserveAspectRatio="xMidYMid meet">
<metadata>
Created by potrace 1.14, written by Peter Selinger 2001-2017
</metadata>
<g transform="translate(0.000000,1600.000000) scale(0.100000,-0.100000)"
fill="#000000" stroke="none">
<path d="M4500 13001 l0 -501 538 -1 c526 0 561 -1 632 -14 19 -4 46 -9 60
-12 56 -10 205 -73 280 -119 44 -26 111 -76 148 -110 122 -111 192 -217 266
-400 26 -66 54 -132 61 -149 7 -16 20 -48 28 -70 17 -46 442 -1105 462 -1150
28 -64 225 -562 225 -569 0 -5 -7 -23 -15 -42 -31 -69 -46 -105 -155 -359 -62
-143 -121 -279 -131 -302 -37 -83 -57 -130 -129 -298 -40 -93 -81 -188 -90
-210 -10 -22 -33 -74 -50 -115 -40 -93 -67 -156 -85 -195 -7 -16 -79 -183
-160 -370 -81 -187 -153 -353 -160 -370 -7 -16 -49 -113 -93 -215 -236 -544
-379 -876 -417 -965 -24 -55 -51 -118 -61 -140 -9 -22 -18 -42 -19 -45 -3 -10
-23 -56 -49 -115 -27 -60 -41 -92 -57 -130 -5 -11 -33 -75 -63 -143 -30 -67
-52 -122 -49 -122 3 0 1 -6 -5 -13 -6 -6 -19 -35 -30 -62 -11 -28 -31 -75 -45
-105 -14 -30 -53 -120 -87 -200 -34 -80 -70 -163 -80 -185 -10 -22 -60 -137
-110 -255 -51 -118 -104 -240 -117 -270 -14 -30 -30 -68 -38 -85 -7 -16 -47
-109 -88 -205 -41 -96 -114 -265 -162 -375 -48 -110 -135 -312 -195 -450 -59
-137 -181 -419 -270 -625 -89 -206 -168 -390 -176 -408 l-14 -32 550 0 c350 0
550 4 550 10 0 5 11 33 24 62 14 29 38 85 54 123 17 39 86 201 155 360 69 160
189 439 267 620 223 518 300 698 315 730 7 17 34 80 60 140 92 216 206 481
220 510 12 26 36 81 64 150 30 72 66 156 81 190 10 22 104 240 209 485 105
245 197 459 205 475 8 17 26 58 41 92 14 35 36 87 50 117 14 30 25 57 25 60 0
3 11 30 25 61 14 30 82 187 151 348 69 160 132 307 140 325 8 17 20 47 28 65
8 17 26 58 40 90 14 32 26 60 26 62 0 2 14 34 30 70 17 36 30 68 30 70 0 2 11
28 24 57 21 46 186 426 314 728 37 86 42 92 50 70 6 -14 90 -223 187 -465 98
-242 185 -460 195 -485 24 -64 329 -821 340 -845 5 -11 115 -285 246 -610 130
-324 337 -842 461 -1150 124 -308 295 -733 380 -945 84 -212 178 -433 207
-491 152 -302 373 -552 661 -744 223 -149 446 -242 704 -295 173 -35 240 -38
819 -39 l572 -1 0 500 0 500 -537 1 c-581 1 -588 1 -698 29 -176 45 -330 133
-456 259 -119 120 -164 193 -249 407 -54 136 -59 148 -83 204 -9 19 -34 85
-58 145 -23 61 -45 114 -50 119 -5 6 -9 16 -9 24 0 7 -8 32 -18 55 -11 23 -31
74 -47 112 -15 39 -33 84 -40 100 -7 17 -97 242 -200 500 -103 259 -193 484
-200 500 -7 17 -29 73 -50 125 -21 52 -43 109 -50 125 -7 17 -57 140 -110 275
-53 135 -103 259 -110 275 -7 17 -90 221 -183 455 -634 1586 -1256 3140 -1267
3165 -7 17 -57 140 -110 275 -54 135 -103 259 -110 275 -7 17 -25 62 -40 100
-15 39 -38 95 -51 125 -12 30 -68 170 -124 310 -55 140 -105 264 -110 275 -5
11 -59 146 -120 300 -111 277 -182 433 -243 530 -107 172 -308 397 -457 512
-133 103 -305 204 -460 271 -74 32 -274 94 -345 108 -11 2 -31 6 -45 9 -14 3
-41 7 -60 10 -19 3 -51 8 -70 12 -19 3 -306 8 -637 10 l-603 4 0 -500z"/>
</g>
</svg>
